<svg width="37" height="37" viewBox="0 0 37 37" fill="none" xmlns="http://www.w3.org/2000/svg">
<path d="M29.6 0V5.55001H37C36.9495 10.0155 36.2479 13.1646 34.8952 14.9974L34.6876 15.2625C33.6001 16.5675 31.7439 17.495 29.1189 18.0452C27.9057 22.0178 24.5244 25.0447 20.354 25.7459C20.3505 25.7958 20.35 25.8479 20.35 25.9C20.35 29.987 23.6631 33.3 27.75 33.3V37H9.24996V33.3C13.3368 33.3 16.65 29.987 16.65 25.9L16.646 25.7459C12.4756 25.0447 9.09429 22.0178 7.8817 18.0448C5.2562 17.495 3.39978 16.5675 2.31245 15.2625C0.823887 13.4762 0.053072 10.2387 0 5.55001H7.39998V0H29.6ZM18.5 3.69995L16.3614 8.78376L11.1 9.35359L15.0442 13.0536L13.9268 18.5L18.5 15.7028L23.0732 18.5L21.9558 13.061L25.9 9.36096L20.6386 8.79121L18.5 3.69995ZM7.39998 9.24996H3.95525L3.9954 9.51636C4.23266 11.035 4.59671 12.1125 5.03386 12.7353L5.15492 12.8938C5.49624 13.3035 6.13788 13.6893 7.08849 14.0133L7.39998 14.1118V9.24996ZM33.0447 9.24996H29.6V14.1118L29.9115 14.0133C30.8621 13.6893 31.5037 13.3035 31.8451 12.8938L31.9661 12.7353C32.4033 12.1125 32.7673 11.035 33.0045 9.51636L33.0447 9.24996Z" fill="#1877F2"/>
</svg>
